inDegrees=no
num_controls=7
num_derivatives=13
num_iterations=121
num_multipliers=7
num_parameters=0
num_slacks=7
num_states=26
objective=4.978826
objective_accelerations=0.400489
objective_balance=0.044552
objective_effort=0.410977
objective_height=4.102146
objective_ligament=0.020664
solver_duration=1354.946336
status=Solve_Succeeded
success=true
DataType=double
version=3
OpenSimVersion=4.4-2022-07-23-0e9fedc
endheader
time	/jointset/ground_pelvis/pelvis_tilt/value	/jointset/ground_pelvis/pelvis_tx/value	/jointset/ground_pelvis/pelvis_ty/value	/jointset/hip_l/hip_flexion_l/value	/jointset/hip_l/hip_adduction_l/value	/jointset/hip_l/hip_rotation_l/value	/jointset/back/lumbar_extension/value	/jointset/patellofemoral_l/patellar_flexion_l/value	/jointset/knee_l/knee_flexion_l/value	/jointset/knee_l/knee_adduction_l/value	/jointset/knee_l/knee_rotation_l/value	/jointset/ankle_l/ankle_angle_l/value	/jointset/subtalar_l/subtalar_angle_l/value	/jointset/ground_pelvis/pelvis_tilt/speed	/jointset/ground_pelvis/pelvis_tx/speed	/jointset/ground_pelvis/pelvis_ty/speed	/jointset/hip_l/hip_flexion_l/speed	/jointset/hip_l/hip_adduction_l/speed	/jointset/hip_l/hip_rotation_l/speed	/jointset/back/lumbar_extension/speed	/jointset/patellofemoral_l/patellar_flexion_l/speed	/jointset/knee_l/knee_flexion_l/speed	/jointset/knee_l/knee_adduction_l/speed	/jointset/knee_l/knee_rotation_l/speed	/jointset/ankle_l/ankle_angle_l/speed	/jointset/subtalar_l/subtalar_angle_l/speed	/forceset/tau_hip_flexion_l	/forceset/tau_hip_adduction_l	/forceset/tau_hip_rotation_l	/forceset/tau_knee_flexion_l	/forceset/tau_ankle_angle_l	/forceset/tau_subtalar_angle_l	/forceset/tau_lumbar_extension	lambda_cid13_p0	lambda_cid13_p1	lambda_cid13_p2	lambda_cid13_p3	lambda_cid13_p4	lambda_cid13_p5	lambda_cid14_p0	/jointset/ground_pelvis/pelvis_tilt/accel	/jointset/ground_pelvis/pelvis_tx/accel	/jointset/ground_pelvis/pelvis_ty/accel	/jointset/hip_l/hip_flexion_l/accel	/jointset/hip_l/hip_adduction_l/accel	/jointset/hip_l/hip_rotation_l/accel	/jointset/back/lumbar_extension/accel	/jointset/patellofemoral_l/patellar_flexion_l/accel	/jointset/knee_l/knee_flexion_l/accel	/jointset/knee_l/knee_adduction_l/accel	/jointset/knee_l/knee_rotation_l/accel	/jointset/ankle_l/ankle_angle_l/accel	/jointset/subtalar_l/subtalar_angle_l/accel	gamma_cid13_p0	gamma_cid13_p1	gamma_cid13_p2	gamma_cid13_p3	gamma_cid13_p4	gamma_cid13_p5	gamma_cid14_p0
1	-0.6600336064368124	-0.1539609581497696	0.6674860369002759	1.73597519762	-0.3151507242074899	0.009133579557537328	-0.4363316858913054	0.8663340715051958	0.8663340715050661	-0.1745319874219166	0.1745323546446531	-0.04096706044484574	-0.07177162372008564	-0.01153218877520545	0.0001653058635728494	-0.002968096999041626	0.01732887785416282	0.0001779128561566581	0.002866339115897753	5.469762318141384e-05	0.007654737250431564	0.007654737250431237	1.680139181415196e-05	-1.163685438687169e-05	0.002432095957362774	0.0005558631513449066	-0.4266095845454776	0.01408838048285521	-0.01981575280410017	-0.1972766721490781	0.200683541183917	0.05225959198356166	0.3443055869140312	19.18478557119701	-26.56622912944916	4.416388344311455	-0.6847523440802565	-706.7091431436369	-55.67902565071365	-17.57090642041107	2.141840542434901	0.4701601922441425	1.256618406842727	-5.513149522864728	-0.04048123073329543	-1.188177238031706	-0.01994096428492289	-3.380580816080495	-3.380580816080505	-0.02300358874944533	0.006789499742556306	-0.1982267767567847	-0.03956657106674825	6.645948115242439e-10	1.772635933715679e-09	-1.60088844324857e-09	-8.074690403011513e-10	1.562589330151167e-09	-1.168574928942584e-10	4.269870453623915e-10
1.01	-0.6600426115546459	-0.1539358686265158	0.6675190442557131	1.735873933973598	-0.3151504276887598	0.009102728172116704	-0.436331294028935	0.866241840362146	0.8662418403621654	-0.1745319174964367	0.1745322233481787	-0.04095253563807522	-0.07176749748971561	0.00972967995719632	0.004852782054289501	0.009565590727891933	-0.0375700164936844	-0.0001180531517736421	-0.009035152308371394	2.28676364740112e-05	-0.02608964165870836	-0.02608964165870836	-1.614016519454382e-06	-1.214841907208911e-05	0.0004744518924666991	0.0002701036904141734	-0.4264414323539069	0.01409283170438095	-0.01981304420222625	-0.197232213047477	0.2006385077782188	0.05226474829335968	0.3441872990617594	19.18314491534772	-26.56915483511718	4.417966769635452	-0.7049264571884504	-706.5196265747046	-55.69031511144159	-17.57669000821495	2.118137018662725	0.4680685875893241	1.251147085316967	-5.476521052330429	-0.02407104545067954	-1.19091700228067	0.005074901807279097	-3.369667469194253	-3.369667469194177	0.0089191811535756	-0.003101885598998183	-0.1942951144777719	-0.02297262947290458	-4.789308239405311e-10	-3.57702574523665e-09	5.668894671011507e-09	-1.171150070373998e-09	-1.303586571637333e-09	4.732683924854962e-09	-1.623463836249761e-09
1.02	-0.6598390425891525	-0.1538638988903341	0.6676772691143599	1.735224029051402	-0.3151530741820331	0.008952905490920184	-0.4363312446828821	0.8658125052218288	0.8658125052220033	-0.1745319957854299	0.1745321608558434	-0.04095753965057798	-0.07176620725312834	0.03098262789039528	0.009541348449170213	0.02207540364283428	-0.09239937730494636	-0.0004106895448169832	-0.02092792003888693	-1.380564338611049e-05	-0.05976606220238913	-0.05976606220238878	-1.284150369748456e-05	2.123975245459184e-06	-0.00147366789730146	-1.133560518430135e-05	-0.4262732801623229	0.01409728292590711	-0.01981033560034698	-0.1971877539458755	0.2005934743725192	0.05226990460315788	0.3440690112095	19.17523004921211	-26.57217838025588	4.420927545183651	-0.7208723164854701	-706.4248871530518	-55.6955217377026	-17.60358626070698	2.140056382594339	0.4703782330769559	1.251843444444485	-5.499242815547676	-0.03981530775591229	-1.186432499280984	-0.02090962291544366	-3.366989142988663	-3.366989142988669	-0.02156600451834576	0.009746291543116889	-0.1963219217312025	-0.03870253800030529	-2.112025758669932e-09	-8.719741838061967e-09	1.297745253632568e-08	-2.933761118217526e-10	-4.987043555597525e-09	9.466894978592828e-09	-3.603392656283524e-09
1.03	-0.6594229537396961	-0.1537450019745073	0.6679604894164434	1.734026044977089	-0.3151585908429452	0.008684209723638928	-0.4363315769112218	0.8650466284990037	0.8650466284990945	-0.1745321470539255	0.1745322641901551	-0.04098198780659675	-0.07176767225501665	0.05223704318805496	0.01424179992542588	0.03456637501646436	-0.1471990857309625	-0.0006877259407079416	-0.03280885866141753	-5.239390785421599e-05	-0.09340976821629558	-0.09340976821629463	-1.506166233751244e-05	1.568216880330099e-05	-0.003415356221164721	-0.0002767807803356747	-0.4259190227739972	0.01412572724205421	-0.01982011322340183	-0.1972178725646948	0.2007182146966757	0.05228154294244928	0.3438833209410401	19.22658214737852	-26.59117901627897	4.42961617218543	-0.8138771951630285	-706.2739463135345	-55.74591667068128	-17.65158148612328	2.118418581763193	0.4704435110907441	1.247379962068649	-5.470582974364963	-0.02091090316287033	-1.188573661087607	0.004703489278104655	-3.363133080088166	-3.363133080088072	0.0108002646056983	-0.003273888106503874	-0.1930010778475503	-0.0197330902874339	-3.750116298493872e-09	-1.386034624123293e-08	2.028640606236489e-08	5.970657547776945e-10	-8.678840142437027e-09	1.41999291918816e-08	-5.582601863444037e-09
1.04	-0.6587942638415818	-0.1535789875626798	0.6683685506279128	1.732280014194866	-0.3151667304873464	0.008296774746661456	-0.4363322876386901	0.8639443003661368	0.863944300366153	-0.1745322504667742	0.1745324162121217	-0.04102583460388082	-0.07177164522525957	0.07350283762217076	0.01896484764932479	0.04704358552002055	-0.202008718886422	-0.0009352862428879743	-0.04467576197788861	-8.950547268816731e-05	-0.1270563442100636	-0.1270563442100628	-3.270375275894921e-06	1.186150761640294e-05	-0.005353396150376511	-0.0005129292760829891	-0.4255647653856744	0.01415417155820163	-0.01982989084646499	-0.197247991183509	0.2008429550208342	0.05229318128174137	0.3436976306725726	19.27163568397652	-26.6102734168047	4.439686712860543	-0.9026363889507071	-706.218246391473	-55.79048095677746	-17.72062904165125	2.142332209885569	0.4748974826056016	1.249091270429708	-5.501227761436343	-0.03392008901371792	-1.183625438069074	-0.0206142829885215	-3.367563138960976	-3.367563138961137	-0.01876371537800747	0.006270520594153967	-0.1955922428009102	-0.0328432021194854	-5.111923856634866e-09	-1.9374624509957e-08	2.810400874758804e-08	4.427404087774907e-10	-1.129591499402003e-08	1.924849627838638e-08	-7.778282883551607e-09
1.05	-0.6579530990833039	-0.1533655636713233	0.6689012422592993	1.729986173186325	-0.3151771981596264	0.007790833000779275	-0.4363323129985824	0.8625056942150838	0.8625056942151275	-0.1745322170788898	0.17453246668027	-0.04108892423794062	-0.07177781241785218	0.09470729661116216	0.02373031526032643	0.05948520041918842	-0.2567272067703133	-0.001153178330126886	-0.05650300825697826	0.0001898438440652795	-0.1606454085608384	-0.1606454085608382	8.680528842849224e-06	-1.131132860787523e-06	-0.007252035567109668	-0.0007134188228627059	-0.4256905126671772	0.01433671568158615	-0.01979546689006258	-0.1968131062856139	0.2005460810001646	0.05244108066254714	0.3440248096647427	19.18284148594968	-26.66327390419516	4.453065134102642	-1.020386418465373	-706.2717773224389	-55.86465851471545	-17.81071750515713	2.106078870498574	0.4789291453630911	1.240262746970884	-5.452319458371959	-0.01496441545872973	-1.180846802780154	0.06808744468902792	-3.351654448762477	-3.35165444876244	0.01098033486011994	-0.004998129721394354	-0.1851252592133458	-0.01258854023527417	-6.46509757159827e-09	-2.490058008697961e-08	3.59375067190357e-08	2.557660873835539e-10	-1.387940479137628e-08	2.430692376717915e-08	-9.98072864781377e-09
1.06	-0.6569005745097187	-0.1531041735548536	0.66955806326914	1.727146115267645	-0.3151896928821533	0.007166904276113992	-0.4363263737075561	0.8607317821473949	0.860731782147471	-0.1745321030136563	0.1745324044273473	-0.04117062535978851	-0.07178577184776831	0.1157748006838595	0.02855809267196969	0.07186946121083164	-0.3112521009144523	-0.001340696292557042	-0.06827315773411836	0.001104309388098773	-0.1941175275366843	-0.1941175275366839	1.286509509422889e-05	-1.06827074476355e-05	-0.009075693707998322	-0.000871376740765506	-0.4258162599486692	0.01451925980497124	-0.01976104293365686	-0.1963782213877195	0.2002492069794933	0.05258898004335319	0.3443519886569233	19.08765728966053	-26.71635467508654	4.467826208844241	-1.134097815888713	-706.4223437824819	-55.93340539827697	-17.92174095894958	2.114941226626744	0.4873594427339243	1.237620448924782	-5.46250901348591	-0.02784526405195566	-1.172206077679162	0.1064089624683513	-3.344174063975188	-3.344174063975184	-0.02031698295146588	0.006958733772209371	-0.1805959876320088	-0.0243368763440919	-7.699984555149855e-09	-3.01772654779427e-08	4.203075459083695e-08	2.906415805252018e-10	-1.637563475828452e-08	2.855949901934324e-08	-1.186061726462207e-08
1.07	-0.6556383663436791	-0.1527941780132553	0.6703383640909171	1.723762162753437	-0.3152038938543997	0.006425590702870959	-0.4363075667364154	0.8586238045240703	0.8586238045241426	-0.1745319912818912	0.1745322685173558	-0.04127019128515978	-0.07179508323005335	0.1366107295167713	0.03345291659004267	0.08417337198631143	-0.3654650013370054	-0.001491651710322782	-0.07997886102174968	0.002820747370607437	-0.2274516919843597	-0.2274516919843596	1.074067443917688e-05	-1.519200824019903e-05	-0.01082527272006129	-0.0009812548580109537	-0.4257808462220081	0.01473562110015076	-0.01972176113635533	-0.1958571880781657	0.1999305240975213	0.05276733590800054	0.344650729668227	18.99941064966594	-26.78571849750876	4.487286047257064	-1.305012524150436	-706.3921456116627	-56.03868488568796	-18.05361623577189	2.059501552266418	0.4923290758244339	1.224172909442759	-5.389672590432595	-0.007544911279752886	-1.168161044258234	0.2288105957053362	-3.324089092556387	-3.324089092556399	0.01002291731801134	-0.003972482664334575	-0.1703057864977517	-0.002866555043466617	-8.928579691285917e-09	-3.544069181645581e-08	4.803143596797615e-08	3.373175957166162e-10	-1.886722324484977e-08	3.276920979083559e-08	-1.372334858635304e-08
